<?xml version="1.0" encoding="UTF-8"?>
<!DOCTYPE svg PUBLIC "-//W3C//DTD SVG 1.1//EN" "http://www.w3.org/Graphics/SVG/1.1/DTD/svg11.dtd">
<!-- Creator: CorelDRAW 2020 (64-Bit) -->
<svg xmlns="http://www.w3.org/2000/svg" xml:space="preserve" width="100%" height="100%" version="1.1" shape-rendering="geometricPrecision" text-rendering="geometricPrecision" image-rendering="optimizeQuality" fill-rule="evenodd" clip-rule="evenodd"
viewBox="0 0 4.75445 5.95099"
 xmlns:xlink="http://www.w3.org/1999/xlink"
 xmlns:xodm="http://www.corel.com/coreldraw/odm/2003">
 <g id="Layer_x0020_1">
  <metadata id="CorelCorpID_0Corel-Layer"/>
  <path fill="#D2FAFF" fill-rule="nonzero" d="M-0 0.46905l0 -0.02709c0,-0.0079 0.00395,-0.01185 0.01185,-0.01185l0.0381 0c0.00791,0 0.01186,0.00395 0.01186,0.01185l0 0.02201c0,0.0508 0.02512,0.0762 0.07535,0.0762l0.07451 0c0.05023,0 0.07535,-0.02596 0.07535,-0.07789l0 -0.02879c0,-0.04064 -0.03358,-0.06717 -0.10075,-0.07958 -0.02822,-0.00508 -0.05645,-0.01101 -0.08467,-0.01778 -0.02822,-0.00678 -0.05221,-0.0199 -0.07197,-0.03937 -0.01975,-0.01948 -0.02963,-0.04615 -0.02963,-0.08001l0 -0.04149c0,-0.03895 0.01115,-0.06957 0.03344,-0.09187 0.0223,-0.02229 0.05292,-0.03344 0.09187,-0.03344l0.09398 0c0.03838,0 0.06886,0.01115 0.09144,0.03344 0.02258,0.0223 0.03386,0.05292 0.03386,0.09187l0 0.02117c0,0.00846 -0.00366,0.0127 -0.011,0.0127l-0.03895 0c-0.00734,0 -0.01101,-0.00424 -0.01101,-0.0127l0 -0.01524c0,-0.05137 -0.02511,-0.07705 -0.07535,-0.07705l-0.07197 0c-0.05023,0 -0.07535,0.02681 -0.07535,0.08043l0 0.03387c0,0.02879 0.01891,0.04854 0.05673,0.05927 0.01693,0.00451 0.03556,0.0086 0.05588,0.01227 0.02032,0.00367 0.04078,0.00847 0.06138,0.0144 0.0206,0.00592 0.03937,0.01326 0.0563,0.02201 0.01694,0.00875 0.03063,0.02201 0.04107,0.03979 0.01044,0.01778 0.01566,0.03937 0.01566,0.06477l0 0.0381c0,0.03895 -0.01129,0.06957 -0.03387,0.09187 -0.02257,0.02229 -0.05305,0.03344 -0.09144,0.03344l-0.09736 0c-0.03838,0 -0.06887,-0.01115 -0.09144,-0.03344 -0.02258,-0.0223 -0.03387,-0.05292 -0.03387,-0.09187z"/>
  <path id="1" fill="#D2FAFF" fill-rule="nonzero" d="M0.47159 0.09144l0 -0.07959c0,-0.0079 0.00367,-0.01185 0.01101,-0.01185l0.03895 0c0.0079,0 0.01185,0.00395 0.01185,0.01185l0 0.07959c0,0.0079 -0.00395,0.01185 -0.01185,0.01185l-0.03895 0c-0.00734,0 -0.01101,-0.00395 -0.01101,-0.01185zm0 0.49107l0 -0.4081c0,-0.0079 0.00367,-0.01185 0.01101,-0.01185l0.03895 0c0.0079,0 0.01185,0.00395 0.01185,0.01185l0 0.4081c0,0.0079 -0.00395,0.01185 -0.01185,0.01185l-0.0381 0c-0.00791,0 -0.01186,-0.00395 -0.01186,-0.01185z"/>
  <path id="2" fill="#D2FAFF" fill-rule="nonzero" d="M0.81788 0.5715l-0.04742 0c-0.03838,0 -0.06829,-0.01101 -0.08974,-0.03302 -0.02145,-0.02201 -0.03218,-0.05278 -0.03218,-0.09229l0 -0.15832c0,-0.03952 0.01115,-0.07028 0.03345,-0.09229 0.02229,-0.02201 0.05291,-0.03302 0.09186,-0.03302l0.18373 0c0.0079,0 0.01185,0.00395 0.01185,0.01185l0 0.41995c0,0.03895 -0.01115,0.06957 -0.03344,0.09186 -0.0223,0.0223 -0.05292,0.03345 -0.09187,0.03345l-0.15578 0c-0.00847,0 -0.0127,-0.00395 -0.0127,-0.01186l0 -0.03132c0,-0.00791 0.00423,-0.01186 0.0127,-0.01186l0.14816 0c0.04742,0 0.07112,-0.02427 0.07112,-0.07281l0 -0.06519 -0.00338 0c-0.01468,0.02991 -0.04346,0.04487 -0.08636,0.04487zm0.08974 -0.13208l0 -0.21505c0,-0.00508 -0.00282,-0.00762 -0.00846,-0.00762l-0.11769 0c-0.04741,0 -0.07112,0.02455 -0.07112,0.07366l0 0.15324c0,0.04911 0.02371,0.07366 0.07112,0.07366l0.04741 0c0.0254,0 0.04488,-0.00677 0.05842,-0.02032 0.01355,-0.01354 0.02032,-0.03273 0.02032,-0.05757z"/>
  <path id="3" fill="#D2FAFF" fill-rule="nonzero" d="M1.13622 0.59436l-0.0381 0c-0.0079,0 -0.01185,-0.00395 -0.01185,-0.01185l0 -0.4081c0,-0.0079 0.00395,-0.01185 0.01185,-0.01185l0.0381 0c0.00791,0 0.01186,0.00395 0.01186,0.01185l0 0.03302 0.00338 0c0.01411,-0.02991 0.0429,-0.04487 0.08636,-0.04487l0.04742 0c0.03838,0 0.0683,0.01101 0.08974,0.03302 0.02145,0.02201 0.03218,0.05277 0.03218,0.09229l0 0.29464c0,0.0079 -0.00395,0.01185 -0.01186,0.01185l-0.0381 0c-0.0079,0 -0.01185,-0.00395 -0.01185,-0.01185l0 -0.2921c0,-0.04911 -0.02371,-0.07366 -0.07112,-0.07366l-0.04741 0c-0.0254,0 -0.04488,0.00677 -0.05842,0.02032 -0.01355,0.01354 -0.02032,0.03273 -0.02032,0.05757l0 0.28787c0,0.0079 -0.00395,0.01185 -0.01186,0.01185z"/>
  <path id="4" fill="#D2FAFF" fill-rule="nonzero" d="M1.89992 0.59436l-0.04741 0c-0.03839,0 -0.0683,-0.01101 -0.08975,-0.03302 -0.02145,-0.02201 -0.03217,-0.05278 -0.03217,-0.09229l0 -0.29464c0,-0.0079 0.00395,-0.01185 0.01185,-0.01185l0.0381 0c0.0079,0 0.01185,0.00395 0.01185,0.01185l0 0.2921c0,0.04911 0.02343,0.07366 0.07028,0.07366l0.04826 0c0.0254,0 0.04487,-0.00677 0.05842,-0.02032 0.01354,-0.01354 0.02032,-0.03273 0.02032,-0.05757l0 -0.28787c0,-0.0079 0.00395,-0.01185 0.01185,-0.01185l0.0381 0c0.0079,0 0.01185,0.00395 0.01185,0.01185l0 0.4081c0,0.0079 -0.00395,0.01185 -0.01185,0.01185l-0.0381 0c-0.0079,0 -0.01185,-0.00395 -0.01185,-0.01185l0 -0.03302 -0.00339 0c-0.01411,0.02991 -0.0429,0.04487 -0.08636,0.04487z"/>
  <path id="5" fill="#D2FAFF" fill-rule="nonzero" d="M2.21827 0.71797l-0.0381 0c-0.0079,0 -0.01185,-0.00395 -0.01185,-0.01185l0 -0.53171c0,-0.0079 0.00395,-0.01185 0.01185,-0.01185l0.0381 0c0.00791,0 0.01186,0.00395 0.01186,0.01185l0 0.03302 0.00338 0c0.01411,-0.02991 0.0429,-0.04487 0.08636,-0.04487l0.0508 0c0.03839,0 0.06816,0.01101 0.08933,0.03302 0.02116,0.02201 0.03175,0.05277 0.03175,0.09229l0 0.18118c0,0.03951 -0.01059,0.07028 -0.03175,0.09229 -0.02117,0.02201 -0.05094,0.03302 -0.08933,0.03302l-0.0508 0c-0.04346,0 -0.07225,-0.01496 -0.08636,-0.04487l-0.00338 0 0 0.15663c0,0.0079 -0.00395,0.01185 -0.01186,0.01185zm0.0906 -0.1778l0.04995 0c0.04798,0 0.07197,-0.02455 0.07197,-0.07366l0 -0.1761c0,-0.04911 -0.02399,-0.07366 -0.07197,-0.07366l-0.04995 0c-0.0254,0 -0.04488,0.00677 -0.05842,0.02032 -0.01355,0.01354 -0.02032,0.03273 -0.02032,0.05757l0 0.16764c0,0.02484 0.00677,0.04403 0.02032,0.05757 0.01354,0.01355 0.03302,0.02032 0.05842,0.02032z"/>
  <path fill="#FFCC00" fill-rule="nonzero" d="M0.19812 2.28588l-0.14038 0c-0.02567,0 -0.0385,-0.01283 -0.0385,-0.03849l0 -1.37896c0,-0.02566 0.01283,-0.03849 0.0385,-0.03849l0.1268 0c0.02415,0 0.04076,0.0083 0.04981,0.0249l0.54796 0.98497 0.00906 0 0 -0.97138c0,-0.02566 0.01283,-0.03849 0.03849,-0.03849l0.14039 0c0.02566,0 0.03849,0.01283 0.03849,0.03849l0 1.37896c0,0.02566 -0.01283,0.03849 -0.03849,0.03849l-0.12227 0c-0.02415,0 -0.04378,-0.01208 -0.05887,-0.03623l-0.54344 -0.97365 -0.00905 0 0 0.97139c0,0.02566 -0.01283,0.03849 -0.0385,0.03849z"/>
  <path id="1" fill="#FFCC00" fill-rule="nonzero" d="M1.69936 2.09341l0.19699 0c0.1102,0 0.1653,-0.05585 0.1653,-0.16755l0 -0.7359c0,-0.11171 -0.0551,-0.16756 -0.1653,-0.16756l-0.19699 0c-0.10869,0 -0.16303,0.05585 -0.16303,0.16756l0 0.7359c0,0.1117 0.05434,0.16755 0.16303,0.16755zm0.23096 0.19247l-0.26266 0c-0.11171,0 -0.19813,-0.03095 -0.25926,-0.09284 -0.06114,-0.06189 -0.09171,-0.14793 -0.09171,-0.25813l0 -0.75401c0,-0.1117 0.03057,-0.19812 0.09171,-0.25926 0.06113,-0.06114 0.14755,-0.0917 0.25926,-0.0917l0.26266 0c0.1117,0 0.1985,0.03056 0.26039,0.0917 0.06189,0.06114 0.09284,0.14756 0.09284,0.25926l0 0.75401c0,0.1102 -0.03095,0.19624 -0.09284,0.25813 -0.06189,0.06189 -0.14869,0.09284 -0.26039,0.09284z"/>
  <path id="2" fill="#FFCC00" fill-rule="nonzero" d="M3.0285 2.28588l-0.24002 0c-0.02717,0 -0.04302,-0.01283 -0.04755,-0.03849l-0.26945 -1.37896c-0.00302,-0.02566 0.00981,-0.03849 0.03849,-0.03849l0.17435 0c0.02869,0 0.04378,0.01283 0.04529,0.03849l0.18341 1.18649 0.01358 0 0.26719 -1.19102c0.00302,-0.02264 0.01661,-0.03396 0.04076,-0.03396l0.1902 0c0.02415,0 0.03849,0.01132 0.04302,0.03396l0.26945 1.19102 0.01359 0 0.18341 -1.18423c0.00151,-0.02717 0.0166,-0.04075 0.04528,-0.04075l0.17436 0c0.03019,0 0.04302,0.01358 0.03849,0.04075l-0.26945 1.3767c-0.00453,0.02566 -0.01963,0.03849 -0.04529,0.03849l-0.24002 0c-0.02566,0 -0.04075,-0.01283 -0.04528,-0.03849l-0.25587 -1.14574 -0.00905 0 -0.25587 1.14574c-0.00453,0.02566 -0.01887,0.03849 -0.04302,0.03849z"/>
  <path fill="#D2FAFF" fill-rule="nonzero" d="M1.87811 3.06823l-0.04403 0c-0.03895,0 -0.06957,-0.01101 -0.09186,-0.03302 -0.0223,-0.02201 -0.03345,-0.05278 -0.03345,-0.09229l0 -0.18118c0,-0.03952 0.01115,-0.07028 0.03345,-0.09229 0.02229,-0.02201 0.05291,-0.03302 0.09186,-0.03302l0.18373 0c0.0079,0 0.01185,0.00395 0.01185,0.01185l0 0.4081c0,0.0079 -0.00395,0.01185 -0.01185,0.01185l-0.0381 0c-0.0079,0 -0.01186,-0.00395 -0.01186,-0.01185l0 -0.03302 -0.00338 0c-0.01411,0.02991 -0.0429,0.04487 -0.08636,0.04487zm0.08974 -0.13208l0 -0.23791c0,-0.00508 -0.00282,-0.00762 -0.00846,-0.00762l-0.11854 0c-0.04685,0 -0.07027,0.02455 -0.07027,0.07366l0 0.1761c0,0.04911 0.02342,0.07366 0.07027,0.07366l0.04826 0c0.0254,0 0.04488,-0.00677 0.05842,-0.02032 0.01355,-0.01354 0.02032,-0.03273 0.02032,-0.05757z"/>
  <path id="1" fill="#D2FAFF" fill-rule="nonzero" d="M2.19645 3.06823l-0.0381 0c-0.0079,0 -0.01185,-0.00395 -0.01185,-0.01185l0 -0.4081c0,-0.0079 0.00395,-0.01185 0.01185,-0.01185l0.0381 0c0.00791,0 0.01186,0.00395 0.01186,0.01185l0 0.03302 0.00338 0c0.01411,-0.02991 0.0429,-0.04487 0.08636,-0.04487l0.04742 0c0.03838,0 0.0683,0.01101 0.08974,0.03302 0.02145,0.02201 0.03218,0.05277 0.03218,0.09229l0 0.29464c0,0.0079 -0.00395,0.01185 -0.01186,0.01185l-0.0381 0c-0.0079,0 -0.01185,-0.00395 -0.01185,-0.01185l0 -0.2921c0,-0.04911 -0.02371,-0.07366 -0.07112,-0.07366l-0.04741 0c-0.0254,0 -0.04488,0.00677 -0.05842,0.02032 -0.01355,0.01354 -0.02032,0.03273 -0.02032,0.05757l0 0.28787c0,0.0079 -0.00395,0.01185 -0.01186,0.01185z"/>
  <path id="2" fill="#D2FAFF" fill-rule="nonzero" d="M2.74341 3.06823l-0.04996 0c-0.03838,0 -0.06829,-0.01101 -0.08974,-0.03302 -0.02145,-0.02201 -0.03218,-0.05278 -0.03218,-0.09229l0 -0.18118c0,-0.03952 0.01073,-0.07028 0.03218,-0.09229 0.02145,-0.02201 0.05136,-0.03302 0.08974,-0.03302l0.04996 0c0.04402,0 0.07309,0.01496 0.0872,0.04487l0.00339 0 0 -0.19643c0,-0.0079 0.00367,-0.01185 0.01101,-0.01185l0.03894 0c0.00734,0 0.01101,0.00395 0.01101,0.01185l0 0.57151c0,0.0079 -0.00367,0.01185 -0.01101,0.01185l-0.03894 0c-0.00734,0 -0.01101,-0.00395 -0.01101,-0.01185l0 -0.03302 -0.00339 0c-0.01411,0.02991 -0.04318,0.04487 -0.0872,0.04487zm0.09059 -0.13208l0 -0.16764c0,-0.02484 -0.00677,-0.04403 -0.02032,-0.05757 -0.01355,-0.01355 -0.03302,-0.02032 -0.05842,-0.02032l-0.05165 0c-0.04685,0 -0.07027,0.02455 -0.07027,0.07366l0 0.1761c0,0.04911 0.02342,0.07366 0.07027,0.07366l0.05165 0c0.0254,0 0.04487,-0.00677 0.05842,-0.02032 0.01355,-0.01354 0.02032,-0.03273 0.02032,-0.05757z"/>
  <path id="3" fill="#D2FAFF" fill-rule="nonzero" d="M3.39026 3.04537l-0.04742 0c-0.03838,0 -0.06829,-0.01101 -0.08974,-0.03302 -0.02145,-0.02201 -0.03218,-0.05278 -0.03218,-0.09229l0 -0.15832c0,-0.03952 0.01115,-0.07028 0.03345,-0.09229 0.02229,-0.02201 0.05291,-0.03302 0.09186,-0.03302l0.18373 0c0.0079,0 0.01185,0.00395 0.01185,0.01185l0 0.41995c0,0.03895 -0.01115,0.06957 -0.03344,0.09186 -0.0223,0.0223 -0.05292,0.03345 -0.09187,0.03345l-0.15578 0c-0.00847,0 -0.0127,-0.00395 -0.0127,-0.01186l0 -0.03132c0,-0.00791 0.00423,-0.01186 0.0127,-0.01186l0.14816 0c0.04742,0 0.07112,-0.02427 0.07112,-0.07281l0 -0.06519 -0.00338 0c-0.01468,0.02991 -0.04346,0.04487 -0.08636,0.04487zm0.08974 -0.13208l0 -0.21505c0,-0.00508 -0.00282,-0.00762 -0.00846,-0.00762l-0.11769 0c-0.04741,0 -0.07112,0.02455 -0.07112,0.07366l0 0.15324c0,0.04911 0.02371,0.07366 0.07112,0.07366l0.04741 0c0.0254,0 0.04488,-0.00677 0.05842,-0.02032 0.01355,-0.01354 0.02032,-0.03273 0.02032,-0.05757z"/>
  <path id="4" fill="#D2FAFF" fill-rule="nonzero" d="M3.95498 3.06823l-0.17949 0c-0.03895,0 -0.06957,-0.01101 -0.09186,-0.03302 -0.0223,-0.02201 -0.03345,-0.05278 -0.03345,-0.09229l0 -0.18118c0,-0.03952 0.01115,-0.07028 0.03345,-0.09229 0.02229,-0.02201 0.05291,-0.03302 0.09186,-0.03302l0.07112 0c0.03895,0 0.06943,0.01101 0.09144,0.03302 0.02201,0.02201 0.03302,0.05277 0.03302,0.09229l0 0.10752c0,0.00847 -0.00395,0.0127 -0.01185,0.0127l-0.23961 0c-0.00564,0 -0.00847,0.00254 -0.00847,0.00762l0 0.05165c0,0.04911 0.02371,0.07366 0.07112,0.07366l0.17272 0c0.00791,0 0.01186,0.00395 0.01186,0.01185l0 0.03048c0,0.00734 -0.00395,0.01101 -0.01186,0.01101zm-0.23537 -0.23114l0.18288 0c0.00565,0 0.00847,-0.00282 0.00847,-0.00847l0 -0.06519c0,-0.04854 -0.02371,-0.07281 -0.07112,-0.07281l-0.05758 0c-0.04741,0 -0.07112,0.02427 -0.07112,0.07281l0 0.06519c0,0.00565 0.00283,0.00847 0.00847,0.00847z"/>
  <path id="5" fill="#D2FAFF" fill-rule="nonzero" d="M4.0913 2.69062l-0.04657 0c-0.0079,0 -0.01185,-0.00367 -0.01185,-0.01101l0 -0.03133c0,-0.0079 0.00395,-0.01185 0.01185,-0.01185l0.04657 0c0.00564,0 0.00846,-0.00254 0.00846,-0.00762l0 -0.07282c0,-0.0079 0.00395,-0.01185 0.01186,-0.01185l0.0381 0c0.00733,0 0.011,0.00395 0.011,0.01185l0 0.07282c0,0.00508 0.00311,0.00762 0.00932,0.00762l0.08974 0c0.00847,0 0.0127,0.00395 0.0127,0.01185l0 0.03133c0,0.00734 -0.00423,0.01101 -0.0127,0.01101l-0.08974 0c-0.00621,0 -0.00932,0.00254 -0.00932,0.00762l0 0.24384c0,0.04797 0.02484,0.07196 0.07451,0.07196l0.03302 0c0.00847,0 0.0127,0.00395 0.0127,0.01186l0 0.03132c0,0.00734 -0.00423,0.01101 -0.0127,0.01101l-0.04064 0c-0.03895,0 -0.06999,-0.01087 -0.09313,-0.0326 -0.02315,-0.02173 -0.03472,-0.05207 -0.03472,-0.09101l0 -0.24638c0,-0.00508 -0.00282,-0.00762 -0.00846,-0.00762z"/>
  <path fill="#FFCC00" fill-rule="nonzero" d="M0.48807 4.8625l0 -0.24241c0,-0.09697 0.04168,-0.17947 0.12503,-0.24751l0.4695 -0.39806c0.07655,-0.06294 0.11483,-0.13099 0.11483,-0.20414l0 -0.07655c0,-0.05273 -0.01233,-0.09058 -0.037,-0.11354 -0.02467,-0.02297 -0.06507,-0.03445 -0.1212,-0.03445l-0.08931 0c-0.05444,0 -0.09271,0.01148 -0.11483,0.03445 -0.02211,0.02296 -0.03317,0.06081 -0.03317,0.11354l0 0.08166c0,0.03742 -0.01786,0.05613 -0.05358,0.05613l-0.21689 0c-0.03573,0 -0.05359,-0.01871 -0.05359,-0.05613l0 -0.08676c0,-0.13268 0.03658,-0.23475 0.10972,-0.3062 0.07315,-0.07144 0.17692,-0.10717 0.31131,-0.10717l0.19392 0c0.13439,0 0.23816,0.03573 0.3113,0.10717 0.07315,0.07145 0.10973,0.17352 0.10973,0.3062l0 0.10207c0,0.13268 -0.05104,0.24241 -0.1531,0.32916l-0.47972 0.40827c-0.02041,0.01871 -0.03062,0.03912 -0.03062,0.06124l0 0.04082 0.60985 0c0.03572,0 0.05359,0.01787 0.05359,0.05359l0 0.17862c0,0.03572 -0.01787,0.05358 -0.05359,0.05358l-0.9186 0c-0.03572,0 -0.05358,-0.01786 -0.05358,-0.05358z"/>
  <path id="1" fill="#FFCC00" fill-rule="nonzero" d="M2.23596 4.6354l0.15054 0c0.05444,0 0.09271,-0.01149 0.11483,-0.03445 0.02211,-0.02296 0.03317,-0.06167 0.03317,-0.1161l0 -0.77826c0,-0.05443 -0.01106,-0.09313 -0.03317,-0.1161 -0.02212,-0.02296 -0.06039,-0.03444 -0.11483,-0.03444l-0.15054 0c-0.05444,0 -0.09271,0.01148 -0.11483,0.03444 -0.02211,0.02297 -0.03317,0.06167 -0.03317,0.1161l0 0.77826c0,0.05443 0.01106,0.09314 0.03317,0.1161 0.02212,0.02296 0.06039,0.03445 0.11483,0.03445zm0.20158 0.28068l-0.25517 0c-0.13439,0 -0.23815,-0.03572 -0.3113,-0.10717 -0.07315,-0.07145 -0.10972,-0.17436 -0.10972,-0.30875l0 -0.80888c0,-0.13438 0.03657,-0.2373 0.10972,-0.30875 0.07315,-0.07144 0.17691,-0.10717 0.3113,-0.10717l0.25517 0c0.13268,0 0.2356,0.03615 0.30875,0.10845 0.07315,0.0723 0.10972,0.17479 0.10972,0.30747l0 0.80888c0,0.13269 -0.03657,0.23518 -0.10972,0.30747 -0.07315,0.0723 -0.17607,0.10845 -0.30875,0.10845z"/>
  <path id="2" fill="#FFCC00" fill-rule="nonzero" d="M4.44059 4.31644l-0.05869 0c-0.03742,0 -0.06294,0.00723 -0.07655,0.02169 -0.01361,0.01446 -0.02041,0.03955 -0.02041,0.07527l0 0.222c0,0.03742 0.0068,0.06336 0.02041,0.07782 0.01361,0.01446 0.03913,0.02169 0.07655,0.02169l0.05869 0c0.03572,0 0.06082,-0.00765 0.07528,-0.02296 0.01445,-0.01531 0.02168,-0.04083 0.02168,-0.07655l0 -0.222c0,-0.03572 -0.0068,-0.06081 -0.02041,-0.07527 -0.01361,-0.01446 -0.03912,-0.02169 -0.07655,-0.02169zm-0.10717 -0.18117l0.15055 0c0.08846,0 0.15565,0.02297 0.20158,0.0689 0.04593,0.04593 0.0689,0.11227 0.0689,0.19903l0 0.24496c0,0.08675 -0.02297,0.1531 -0.0689,0.19903 -0.04593,0.04593 -0.11312,0.06889 -0.20158,0.06889l-0.15055 0c-0.08675,0 -0.15352,-0.02296 -0.2003,-0.06889 -0.04678,-0.04593 -0.07017,-0.11228 -0.07017,-0.19903l0 -0.24496c0,-0.08676 0.02339,-0.1531 0.07017,-0.19903 0.04678,-0.04593 0.11355,-0.0689 0.2003,-0.0689zm-0.83694 -0.68129l-0.05869 0c-0.03743,0 -0.06294,0.00723 -0.07655,0.02169 -0.01361,0.01446 -0.02041,0.0404 -0.02041,0.07782l0 0.222c0,0.03572 0.0068,0.06081 0.02041,0.07527 0.01361,0.01446 0.03912,0.02169 0.07655,0.02169l0.05869 0c0.03742,0 0.06294,-0.00723 0.07655,-0.02169 0.01361,-0.01446 0.02041,-0.03955 0.02041,-0.07527l0 -0.222c0,-0.03572 -0.00723,-0.06124 -0.02169,-0.07655 -0.01446,-0.01531 -0.03955,-0.02296 -0.07527,-0.02296zm-0.10462 -0.18117l0.15055 0c0.08845,0 0.15565,0.02297 0.20158,0.0689 0.04593,0.04593 0.06889,0.11227 0.06889,0.19903l0 0.24495c0,0.08676 -0.02296,0.1531 -0.06889,0.19903 -0.04593,0.04593 -0.11313,0.0689 -0.20158,0.0689l-0.15055 0c-0.08676,0 -0.15353,-0.02297 -0.20031,-0.0689 -0.04678,-0.04593 -0.07017,-0.11227 -0.07017,-0.19903l0 -0.24495c0,-0.08676 0.02339,-0.1531 0.07017,-0.19903 0.04678,-0.04593 0.11355,-0.0689 0.20031,-0.0689zm0.29344 1.64327l-0.13269 0c-0.03912,0 -0.05188,-0.01786 -0.03827,-0.05358 0.05443,-0.1395 0.15565,-0.39509 0.30365,-0.76678 0.14799,-0.37169 0.24921,-0.62728 0.30364,-0.76677 0.01531,-0.03573 0.03743,-0.05359 0.06635,-0.05359l0.13523 0c0.03913,0 0.05189,0.01786 0.03828,0.05359l-0.6073 1.53355c-0.0136,0.03572 -0.03657,0.05358 -0.06889,0.05358z"/>
  <path fill="#FFCC00" fill-rule="nonzero" d="M2.16993 5.95099l-0.1301 0c-0.07294,0 -0.12937,-0.02021 -0.16929,-0.06062 -0.03991,-0.04041 -0.05987,-0.09659 -0.05987,-0.16854l0 -0.29569c0,-0.07293 0.01996,-0.12936 0.05987,-0.16928 0.03992,-0.03992 0.09635,-0.05987 0.16929,-0.05987l0.1301 0c0.07195,0 0.12838,0.01995 0.16928,0.05987 0.0409,0.03992 0.06135,0.09635 0.06135,0.16928l0 0.29569c0,0.07195 -0.02045,0.12813 -0.06135,0.16854 -0.0409,0.04041 -0.09733,0.06062 -0.16928,0.06062zm-0.10941 -0.12567l0.09019 0c0.07096,0 0.10645,-0.03597 0.10645,-0.10792l0 -0.28682c0,-0.07195 -0.03549,-0.10793 -0.10645,-0.10793l-0.09019 0c-0.03745,0 -0.06455,0.00863 -0.08131,0.02588 -0.01676,0.01724 -0.02513,0.0446 -0.02513,0.08205l0 0.28682c0,0.03745 0.00837,0.0648 0.02513,0.08205 0.01676,0.01725 0.04386,0.02587 0.08131,0.02587z"/>
  <path id="1" fill="#FFCC00" fill-rule="nonzero" d="M2.79826 5.19699l0.12419 0c0.01774,0 0.02661,0.00788 0.02661,0.02365l0 0.07688c0,0.01676 -0.00887,0.02513 -0.02661,0.02513l-0.12419 0c-0.00985,0 -0.01478,0.00493 -0.01478,0.01479l0 0.58842c0,0.01675 -0.00887,0.02513 -0.02661,0.02513l-0.09315 0c-0.01675,0 -0.02513,-0.00838 -0.02513,-0.02513l0 -0.58842c0,-0.00986 -0.00542,-0.01479 -0.01626,-0.01479l-0.07836 0c-0.01676,0 -0.02513,-0.00837 -0.02513,-0.02513l0 -0.07688c0,-0.00887 0.00172,-0.01503 0.00517,-0.01848 0.00345,-0.00345 0.0101,-0.00517 0.01996,-0.00517l0.07836 0c0.01084,0 0.01626,-0.00493 0.01626,-0.01479l0 -0.04287c0,-0.07294 0.01873,-0.12912 0.05618,-0.16855 0.03745,-0.03942 0.09216,-0.05913 0.16411,-0.05913l0.06505 0c0.01675,0 0.02513,0.00788 0.02513,0.02365l0 0.07688c0,0.01676 -0.00838,0.02513 -0.02513,0.02513l-0.04435 0c-0.03549,0 -0.06037,0.00863 -0.07467,0.02588 -0.01429,0.01725 -0.02143,0.04509 -0.02143,0.08353l0 0.03548c0,0.00986 0.00493,0.01479 0.01478,0.01479z"/>
  <path id="2" fill="#FFCC00" fill-rule="nonzero" d="M3.29354 5.19699l0.12419 0c0.01774,0 0.02661,0.00788 0.02661,0.02365l0 0.07688c0,0.01676 -0.00887,0.02513 -0.02661,0.02513l-0.12419 0c-0.00985,0 -0.01478,0.00493 -0.01478,0.01479l0 0.58842c0,0.01675 -0.00887,0.02513 -0.02661,0.02513l-0.09315 0c-0.01675,0 -0.02513,-0.00838 -0.02513,-0.02513l0 -0.58842c0,-0.00986 -0.00542,-0.01479 -0.01626,-0.01479l-0.07836 0c-0.01676,0 -0.02513,-0.00837 -0.02513,-0.02513l0 -0.07688c0,-0.00887 0.00172,-0.01503 0.00517,-0.01848 0.00345,-0.00345 0.0101,-0.00517 0.01996,-0.00517l0.07836 0c0.01084,0 0.01626,-0.00493 0.01626,-0.01479l0 -0.04287c0,-0.07294 0.01873,-0.12912 0.05618,-0.16855 0.03745,-0.03942 0.09216,-0.05913 0.16411,-0.05913l0.06505 0c0.01675,0 0.02513,0.00788 0.02513,0.02365l0 0.07688c0,0.01676 -0.00838,0.02513 -0.02513,0.02513l-0.04435 0c-0.03549,0 -0.06037,0.00863 -0.07467,0.02588 -0.01429,0.01725 -0.02143,0.04509 -0.02143,0.08353l0 0.03548c0,0.00986 0.00493,0.01479 0.01478,0.01479z"/>
 </g>
</svg>
